# xmcd CD database file
#
# Track frame offsets:
#	150
#	20069
#	49690
#	62214
#	76414
#	96980
#	118404
#	153689
#	166506
#	176647
#	190801
#	215991
#	235852
#	247060
#	267324
#
# Disc length: 4138 seconds
#
# Revision: 1
# Processed by: cddbd v1.5.2PL0 Copyright (c) Steve Scherf et al.
# Submitted via: CDex 1.70beta2
#
DISCID=dd10280f
DTITLE=Various Artist - NHK 美の壺 withブルーノート ジャズ・ピアノ・コレクション
DYEAR=2010
DGENRE=Jazz
TTITLE0=クレオパトラの夢／(バド・パウエル)
TTITLE1=朝日のようにさわやかに／(ソニー・クラーク)
TTITLE2=アイ・リメンバー・ユー／(エルモ・ホープ)
TTITLE3=ルビー・マイ・ディア／(セロニアス・モンク)
TTITLE4=アス・スリー／(ホレス・パーラン)
TTITLE5=風と共に去りぬ／(ユタ・ヒップ)
TTITLE6=スピーク・ライク・ア・チャイルド／(ハービー・ハンコック)
TTITLE7=プレリュード・トゥ・ア・キス／(ホレス・シルヴァー)
TTITLE8=ハウ・インセンシティヴ／(デューク・ピアソン)
TTITLE9=チェロキー／(ウィントン・ケリー)
TTITLE10=オン・グリーン・ドルフィン・ストリート／(ザ・スリー・サウンズ)
TTITLE11=ザ・レディ・シングス・ザ・ブルース／(ハービー・ニコルス)
TTITLE12=星影のステラ／(ケニー・ドリュー)
TTITLE13=あなたの顔になれてきた／(マッコイ・タイナー)
TTITLE14=モーニン／(アート・ブレイキー&ザ・ジャズ・メッセンジャーズ)
EXTD=YEAR: 2010
EXTT0=
EXTT1=
EXTT2=
EXTT3=
EXTT4=
EXTT5=
EXTT6=
EXTT7=
EXTT8=
EXTT9=
EXTT10=
EXTT11=
EXTT12=
EXTT13=
EXTT14=
PLAYORDER=
